<svg width="113" height="14" viewBox="0 0 113 14" fill="none" xmlns="http://www.w3.org/2000/svg">
<path fill-rule="evenodd" clip-rule="evenodd" d="M6.60599 13.126C9.95399 13.126 11.628 11.884 11.628 9.4C11.628 8.776 11.442 8.224 11.07 7.744C10.698 7.264 10.05 6.76 9.12599 6.232C8.83799 6.064 8.48399 5.869 8.06399 5.647C7.64399 5.425 7.31399 5.248 7.07399 5.116C6.83399 4.984 6.58799 4.831 6.33599 4.657C6.08399 4.483 5.90099 4.315 5.78699 4.153C5.67299 3.991 5.61599 3.82 5.61599 3.64C5.61599 3.064 5.96999 2.776 6.67799 2.776C7.12199 2.776 7.60799 2.887 8.13599 3.109C8.66399 3.331 9.14399 3.553 9.57599 3.775C10.008 3.997 10.332 4.108 10.548 4.108C10.68 4.108 10.803 4.081 10.917 4.027C11.031 3.973 11.127 3.883 11.205 3.757C11.283 3.631 11.322 3.478 11.322 3.298C11.322 2.638 10.818 2.014 9.80999 1.426C8.80199 0.838003 7.58399 0.544003 6.15599 0.544003C4.49999 0.544003 3.22199 0.862003 2.32199 1.498C1.42199 2.134 0.971987 2.956 0.971987 3.964C0.971987 4.276 1.04399 4.615 1.18799 4.981C1.33199 5.347 1.56299 5.716 1.88099 6.088C2.19899 6.46 2.57999 6.772 3.02399 7.024C3.35999 7.216 3.70799 7.408 4.06799 7.6C4.42799 7.792 4.71899 7.948 4.94099 8.068L5.60699 8.428C5.82899 8.548 6.00299 8.647 6.12899 8.725C6.25499 8.803 6.36899 8.887 6.47099 8.977C6.57299 9.067 6.64499 9.157 6.68699 9.247C6.72899 9.337 6.74999 9.436 6.74999 9.544C6.74999 9.916 6.47999 10.102 5.93999 10.102C5.35199 10.102 4.57799 9.943 3.61799 9.625C2.65799 9.307 2.05199 9.148 1.79999 9.148C1.46399 9.148 1.20899 9.241 1.03499 9.427C0.860987 9.613 0.773987 9.838 0.773987 10.102C0.773987 10.342 0.863987 10.6 1.04399 10.876C1.22399 11.152 1.49099 11.422 1.84499 11.686C2.19899 11.95 2.60699 12.19 3.06899 12.406C3.53099 12.622 4.07099 12.796 4.68899 12.928C5.30699 13.06 5.94599 13.126 6.60599 13.126ZM25.884 13C26.184 13 26.433 12.979 26.631 12.937C26.829 12.895 27.009 12.811 27.171 12.685C27.333 12.559 27.459 12.4 27.549 12.208C27.639 12.016 27.714 11.752 27.774 11.416C27.834 11.08 27.873 10.702 27.891 10.282C27.909 9.862 27.918 9.334 27.918 8.698C27.918 7.174 27.732 6.088 27.36 5.44C26.988 4.792 26.376 4.468 25.524 4.468C24.18 4.468 23.046 4.804 22.122 5.476L21.942 5.62C21.546 4.852 20.904 4.468 20.016 4.468C19.428 4.468 18.915 4.534 18.477 4.666C18.039 4.798 17.592 5.032 17.136 5.368C16.872 4.732 16.248 4.414 15.264 4.414C14.712 4.414 14.271 4.6 13.941 4.972C13.611 5.344 13.446 5.836 13.446 6.448V10.876C13.446 11.632 13.575 12.175 13.833 12.505C14.091 12.835 14.574 13 15.282 13C16.038 13 16.566 12.859 16.866 12.577C17.166 12.295 17.316 11.794 17.316 11.074V8.572C17.316 8.176 17.385 7.855 17.523 7.609C17.661 7.363 17.838 7.24 18.054 7.24C18.594 7.24 18.864 7.576 18.864 8.248V11.506C18.864 11.83 18.918 12.1 19.026 12.316C19.134 12.532 19.317 12.7 19.575 12.82C19.833 12.94 20.172 13 20.592 13C20.868 13 21.096 12.979 21.276 12.937C21.456 12.895 21.618 12.811 21.762 12.685C21.906 12.559 22.02 12.4 22.104 12.208C22.188 12.016 22.26 11.752 22.32 11.416C22.38 11.08 22.419 10.702 22.437 10.282C22.455 9.862 22.464 9.334 22.464 8.698C22.464 8.278 22.524 7.93 22.644 7.654C22.764 7.378 22.944 7.24 23.184 7.24C23.724 7.24 23.994 7.576 23.994 8.248V11.506C23.994 11.83 24.054 12.1 24.174 12.316C24.294 12.532 24.495 12.7 24.777 12.82C25.059 12.94 25.428 13 25.884 13ZM32.985 2.974C32.655 3.178 32.166 3.28 31.518 3.28C30.954 3.28 30.486 3.172 30.114 2.956C29.742 2.74 29.556 2.392 29.556 1.912C29.556 1.516 29.727 1.189 30.069 0.931003C30.411 0.673003 30.894 0.544003 31.518 0.544003C32.826 0.544003 33.48 1 33.48 1.912C33.48 2.416 33.315 2.77 32.985 2.974ZM31.428 13C32.184 13 32.712 12.859 33.012 12.577C33.312 12.295 33.462 11.794 33.462 11.074V6.394C33.462 5.638 33.282 5.119 32.922 4.837C32.562 4.555 32.058 4.414 31.41 4.414C30.858 4.414 30.417 4.6 30.087 4.972C29.757 5.344 29.592 5.836 29.592 6.448V10.876C29.592 11.632 29.721 12.175 29.979 12.505C30.237 12.835 30.72 13 31.428 13ZM38.574 12.37C38.25 12.79 37.752 13 37.08 13C36.408 13 35.916 12.811 35.604 12.433C35.292 12.055 35.136 11.386 35.136 10.426L35.1 2.83C35.1 2.518 35.133 2.242 35.199 2.002C35.265 1.762 35.355 1.558 35.469 1.39C35.583 1.222 35.724 1.084 35.892 0.976003C36.06 0.868003 36.243 0.790003 36.441 0.742003C36.639 0.694003 36.852 0.670003 37.08 0.670003C37.74 0.670003 38.235 0.802003 38.565 1.066C38.895 1.33 39.06 1.864 39.06 2.668V10.282C39.06 11.254 38.898 11.95 38.574 12.37ZM45.666 13.108C46.314 13.108 46.92 13 47.484 12.784C48.048 12.568 48.501 12.307 48.843 12.001C49.185 11.695 49.452 11.389 49.644 11.083C49.836 10.777 49.932 10.516 49.932 10.3C49.932 10.12 49.875 9.97 49.761 9.85C49.647 9.73 49.488 9.67 49.284 9.67C49.164 9.67 48.969 9.736 48.699 9.868C48.429 10 48.18 10.096 47.952 10.156C47.412 10.288 46.884 10.354 46.368 10.354C45.888 10.354 45.492 10.243 45.18 10.021C44.868 9.799 44.652 9.496 44.532 9.112L47.07 9.094C47.37 9.094 47.652 9.067 47.916 9.013C48.18 8.959 48.408 8.881 48.6 8.779C48.792 8.677 48.963 8.563 49.113 8.437C49.263 8.311 49.383 8.173 49.473 8.023C49.563 7.873 49.629 7.72 49.671 7.564C49.713 7.408 49.734 7.246 49.734 7.078C49.734 6.214 49.407 5.533 48.753 5.035C48.099 4.537 47.07 4.288 45.666 4.288C44.178 4.288 42.963 4.699 42.021 5.521C41.079 6.343 40.608 7.462 40.608 8.878C40.608 10.186 41.085 11.218 42.039 11.974C42.993 12.73 44.202 13.108 45.666 13.108ZM44.676 6.871C44.556 7.201 44.478 7.564 44.442 7.96C45.27 7.948 45.72 7.942 45.792 7.942C45.972 7.942 46.104 7.834 46.188 7.618C46.248 7.462 46.278 7.246 46.278 6.97C46.278 6.214 46.05 5.836 45.594 5.836C45.426 5.836 45.261 5.926 45.099 6.106C44.937 6.286 44.796 6.541 44.676 6.871ZM57.204 13.126C60.552 13.126 62.226 11.884 62.226 9.4C62.226 8.776 62.04 8.224 61.668 7.744C61.296 7.264 60.648 6.76 59.724 6.232C59.436 6.064 59.082 5.869 58.662 5.647C58.242 5.425 57.912 5.248 57.672 5.116C57.432 4.984 57.186 4.831 56.934 4.657C56.682 4.483 56.499 4.315 56.385 4.153C56.271 3.991 56.214 3.82 56.214 3.64C56.214 3.064 56.568 2.776 57.276 2.776C57.72 2.776 58.206 2.887 58.734 3.109C59.262 3.331 59.742 3.553 60.174 3.775C60.606 3.997 60.93 4.108 61.146 4.108C61.278 4.108 61.401 4.081 61.515 4.027C61.629 3.973 61.725 3.883 61.803 3.757C61.881 3.631 61.92 3.478 61.92 3.298C61.92 2.638 61.416 2.014 60.408 1.426C59.4 0.838003 58.182 0.544003 56.754 0.544003C55.098 0.544003 53.82 0.862003 52.92 1.498C52.02 2.134 51.57 2.956 51.57 3.964C51.57 4.276 51.642 4.615 51.786 4.981C51.93 5.347 52.161 5.716 52.479 6.088C52.797 6.46 53.178 6.772 53.622 7.024C53.958 7.216 54.306 7.408 54.666 7.6C55.026 7.792 55.317 7.948 55.539 8.068L56.205 8.428C56.427 8.548 56.601 8.647 56.727 8.725C56.853 8.803 56.967 8.887 57.069 8.977C57.171 9.067 57.243 9.157 57.285 9.247C57.327 9.337 57.348 9.436 57.348 9.544C57.348 9.916 57.078 10.102 56.538 10.102C55.95 10.102 55.176 9.943 54.216 9.625C53.256 9.307 52.65 9.148 52.398 9.148C52.062 9.148 51.807 9.241 51.633 9.427C51.459 9.613 51.372 9.838 51.372 10.102C51.372 10.342 51.462 10.6 51.642 10.876C51.822 11.152 52.089 11.422 52.443 11.686C52.797 11.95 53.205 12.19 53.667 12.406C54.129 12.622 54.669 12.796 55.287 12.928C55.905 13.06 56.544 13.126 57.204 13.126ZM70.416 12.91C69.948 13.054 69.456 13.126 68.94 13.126C67.452 13.126 66.228 12.727 65.268 11.929C64.308 11.131 63.828 10.036 63.828 8.644C63.828 7.756 64.047 6.979 64.485 6.313C64.923 5.647 65.526 5.143 66.294 4.801C67.062 4.459 67.944 4.288 68.94 4.288C69.888 4.288 70.671 4.399 71.289 4.621C71.907 4.843 72.348 5.14 72.612 5.512C72.876 5.884 73.008 6.328 73.008 6.844C73.008 7.072 72.963 7.306 72.873 7.546C72.783 7.786 72.645 8.026 72.459 8.266C72.273 8.506 72 8.701 71.64 8.851C71.28 9.001 70.86 9.076 70.38 9.076C70.164 9.076 69.987 9.064 69.849 9.04C69.711 9.016 69.567 8.965 69.417 8.887C69.267 8.809 69.156 8.68 69.084 8.5C69.012 8.32 68.976 8.092 68.976 7.816C68.976 7.576 69.021 7.285 69.111 6.943C69.201 6.601 69.246 6.376 69.246 6.268C69.246 5.992 69.09 5.854 68.778 5.854C68.55 5.854 68.346 5.98 68.166 6.232C67.986 6.484 67.848 6.799 67.752 7.177C67.656 7.555 67.608 7.948 67.608 8.356C67.608 8.956 67.791 9.442 68.157 9.814C68.523 10.186 69.018 10.372 69.642 10.372C70.254 10.372 70.782 10.3 71.226 10.156C71.406 10.108 71.625 10.018 71.883 9.886C72.141 9.754 72.324 9.688 72.432 9.688C72.6 9.688 72.738 9.718 72.846 9.778C72.954 9.838 73.029 9.91 73.071 9.994C73.113 10.078 73.134 10.168 73.134 10.264C73.134 10.432 73.077 10.636 72.963 10.876C72.849 11.116 72.672 11.368 72.432 11.632C72.192 11.896 71.913 12.139 71.595 12.361C71.277 12.583 70.884 12.766 70.416 12.91ZM82.242 13C82.494 13 82.71 12.982 82.89 12.946C83.07 12.91 83.235 12.853 83.385 12.775C83.535 12.697 83.658 12.586 83.754 12.442C83.85 12.298 83.934 12.124 84.006 11.92C84.078 11.716 84.132 11.455 84.168 11.137C84.204 10.819 84.231 10.468 84.249 10.084C84.267 9.7 84.276 9.244 84.276 8.716C84.276 7.684 84.192 6.85 84.024 6.214C83.856 5.578 83.598 5.113 83.25 4.819C82.902 4.525 82.44 4.378 81.864 4.378C80.592 4.378 79.512 4.648 78.624 5.188V2.578C78.624 1.774 78.462 1.24 78.138 0.976003C77.814 0.712003 77.334 0.580003 76.698 0.580003C76.098 0.580003 75.618 0.754003 75.258 1.102C74.898 1.45 74.718 1.996 74.718 2.74L74.754 10.408C74.754 11.368 74.91 12.037 75.222 12.415C75.534 12.793 76.026 12.982 76.698 12.982C77.346 12.982 77.829 12.775 78.147 12.361C78.465 11.947 78.624 11.248 78.624 10.264V8.284C78.624 8.152 78.633 8.032 78.651 7.924C78.669 7.816 78.699 7.723 78.741 7.645C78.783 7.567 78.831 7.495 78.885 7.429C78.939 7.363 78.999 7.312 79.065 7.276C79.131 7.24 79.203 7.21 79.281 7.186C79.359 7.162 79.446 7.15 79.542 7.15C80.07 7.15 80.334 7.492 80.334 8.176L80.352 11.506C80.352 12.01 80.499 12.385 80.793 12.631C81.087 12.877 81.57 13 82.242 13ZM94.365 11.956C93.423 12.736 92.238 13.126 90.81 13.126C89.874 13.126 89.031 12.958 88.281 12.622C87.531 12.286 86.931 11.782 86.481 11.11C86.031 10.438 85.806 9.652 85.806 8.752C85.806 7.384 86.274 6.298 87.21 5.494C88.146 4.69 89.346 4.288 90.81 4.288C92.274 4.288 93.468 4.69 94.392 5.494C95.316 6.298 95.778 7.384 95.778 8.752C95.778 10.108 95.307 11.176 94.365 11.956ZM90.81 11.038C90.498 11.038 90.258 10.807 90.09 10.345C89.922 9.883 89.838 9.346 89.838 8.734C89.838 8.338 89.874 7.966 89.946 7.618C90.018 7.27 90.132 6.976 90.288 6.736C90.444 6.496 90.624 6.376 90.828 6.376C91.128 6.376 91.356 6.613 91.512 7.087C91.668 7.561 91.746 8.11 91.746 8.734C91.746 9.358 91.668 9.898 91.512 10.354C91.356 10.81 91.122 11.038 90.81 11.038ZM105.723 11.956C104.781 12.736 103.596 13.126 102.168 13.126C101.232 13.126 100.389 12.958 99.639 12.622C98.889 12.286 98.289 11.782 97.839 11.11C97.389 10.438 97.164 9.652 97.164 8.752C97.164 7.384 97.632 6.298 98.568 5.494C99.504 4.69 100.704 4.288 102.168 4.288C103.632 4.288 104.826 4.69 105.75 5.494C106.674 6.298 107.136 7.384 107.136 8.752C107.136 10.108 106.665 11.176 105.723 11.956ZM102.168 11.038C101.856 11.038 101.616 10.807 101.448 10.345C101.28 9.883 101.196 9.346 101.196 8.734C101.196 8.338 101.232 7.966 101.304 7.618C101.376 7.27 101.49 6.976 101.646 6.736C101.802 6.496 101.982 6.376 102.186 6.376C102.486 6.376 102.714 6.613 102.87 7.087C103.026 7.561 103.104 8.11 103.104 8.734C103.104 9.358 103.026 9.898 102.87 10.354C102.714 10.81 102.48 11.038 102.168 11.038ZM112.122 12.37C111.798 12.79 111.3 13 110.628 13C109.956 13 109.464 12.811 109.152 12.433C108.84 12.055 108.684 11.386 108.684 10.426L108.648 2.83C108.648 2.518 108.681 2.242 108.747 2.002C108.813 1.762 108.903 1.558 109.017 1.39C109.131 1.222 109.272 1.084 109.44 0.976003C109.608 0.868003 109.791 0.790003 109.989 0.742003C110.187 0.694003 110.4 0.670003 110.628 0.670003C111.288 0.670003 111.783 0.802003 112.113 1.066C112.443 1.33 112.608 1.864 112.608 2.668V10.282C112.608 11.254 112.446 11.95 112.122 12.37Z" fill="white"/>
</svg>
