<svg width="37" height="28" viewBox="0 0 37 28" fill="none" xmlns="http://www.w3.org/2000/svg">
<path d="M8.92799 11.8712C11.0968 11.8712 12.8608 9.2136 12.8608 5.9468C12.8608 2.6808 11.0968 0.023201 8.92799 0.023201C6.75919 0.023201 4.99479 2.6808 4.99479 5.9468C4.99479 9.2136 6.75959 11.8712 8.92799 11.8712Z" fill="white"/>
<path d="M27.6424 11.8712C29.8112 11.8712 31.5756 9.2136 31.5756 5.9468C31.5756 2.6808 29.8112 0.023201 27.6424 0.023201C25.474 0.023201 23.71 2.6808 23.71 5.9468C23.71 9.2136 25.4744 11.8712 27.6424 11.8712Z" fill="white"/>
<path d="M35.7178 16.612C35.4686 16.3988 35.1252 16.3744 34.8617 16.5559C30.6311 19.4466 24.8916 21.4571 18.6998 22.2173C12.5094 22.9774 6.45369 22.4152 1.6491 20.6343C1.34928 20.5232 1.02106 20.6288 0.832335 20.8958C0.642558 21.1633 0.633217 21.5352 0.808861 21.8215C3.41478 26.0761 11.0299 28.3353 19.3262 27.3166C27.6259 26.2975 34.4685 22.262 35.9656 17.504C36.0661 17.1842 35.9662 16.8253 35.7178 16.612Z" fill="white"/>
</svg>
